<svg xmlns="http://www.w3.org/2000/svg" viewBox="0 0 1400 760" role="img" aria-labelledby="title desc">
  <title id="title">Speculation Lab comparing myth and physics</title>
  <desc id="desc">A dramatic split-scene illustration with manuscripts, evidence cards, magnetic field lines, a test diagram, and a central balance beam.</desc>
  <defs>
    <linearGradient id="bg" x1="0" y1="0" x2="1" y2="1">
      <stop offset="0" stop-color="#100807"/>
      <stop offset="0.48" stop-color="#2b1b17"/>
      <stop offset="1" stop-color="#7d422d"/>
    </linearGradient>
    <radialGradient id="gold" cx="50%" cy="20%" r="62%">
      <stop offset="0" stop-color="#d4b26a" stop-opacity="0.45"/>
      <stop offset="1" stop-color="#d4b26a" stop-opacity="0"/>
    </radialGradient>
    <filter id="shadow" x="-20%" y="-20%" width="140%" height="140%">
      <feDropShadow dx="0" dy="24" stdDeviation="24" flood-color="#070302" flood-opacity="0.52"/>
    </filter>
  </defs>
  <rect width="1400" height="760" fill="url(#bg)"/>
  <rect width="1400" height="760" fill="url(#gold)"/>
  <g opacity="0.11" fill="none" stroke="#f8f0e3" stroke-width="3">
    <circle cx="1060" cy="290" r="230"/>
    <circle cx="1060" cy="290" r="155"/>
    <path d="M830 290h460M1060 60v460M898 128l324 324M1222 128 898 452"/>
  </g>
  <g transform="translate(120 130)" filter="url(#shadow)">
    <rect width="1160" height="500" rx="44" fill="#f8f0e3" opacity="0.9"/>
    <path d="M580 55v390" stroke="#8d4f36" stroke-width="5" stroke-dasharray="16 16" opacity="0.68"/>
    <g transform="translate(82 105)">
      <rect width="380" height="250" rx="28" fill="#ead8b0" stroke="#8d4f36" stroke-width="5"/>
      <path d="M55 62h230M55 110h270M55 158h188" stroke="#2b1b17" stroke-width="13" stroke-linecap="round" opacity="0.55"/>
      <path d="M55 196h150" stroke="#8d4f36" stroke-width="8" stroke-linecap="round" opacity="0.7"/>
      <circle cx="305" cy="182" r="42" fill="#d4b26a"/>
      <path d="M278 182h54M305 155v54" stroke="#2b1b17" stroke-width="8" stroke-linecap="round" opacity="0.62"/>
    </g>
    <g transform="translate(698 104)">
      <rect width="360" height="250" rx="28" fill="#2b1b17"/>
      <path d="M42 126c82-108 210-108 292 0M42 126c82 108 210 108 292 0" fill="none" stroke="#d4b26a" stroke-width="9" stroke-linecap="round"/>
      <circle cx="42" cy="126" r="24" fill="#f8f0e3"/>
      <circle cx="334" cy="126" r="24" fill="#f8f0e3"/>
      <rect x="128" y="94" width="110" height="64" rx="18" fill="#8d4f36"/>
      <path d="M72 203h220" stroke="#f8f0e3" stroke-width="8" stroke-linecap="round" opacity="0.65"/>
    </g>
    <g transform="translate(440 392)">
      <rect width="280" height="58" rx="29" fill="#d4b26a"/>
      <circle cx="140" cy="29" r="9" fill="#2b1b17"/>
      <path d="M48 29h184M140 29l-52-52M140 29l52-52" stroke="#2b1b17" stroke-width="7" stroke-linecap="round"/>
    </g>
  </g>
</svg>
