<svg xmlns="http://www.w3.org/2000/svg" viewBox="0 0 1400 760" role="img" aria-labelledby="title desc">
  <title id="title">Ancient urban engineering and drainage network</title>
  <desc id="desc">A rich aerial-plan illustration of an Indus-style urban grid with wells, covered drains, streets, homes, and water channels.</desc>
  <defs>
    <linearGradient id="bg" x1="0" y1="0" x2="1" y2="1">
      <stop offset="0" stop-color="#160f0b"/>
      <stop offset="0.5" stop-color="#573522"/>
      <stop offset="1" stop-color="#c99657"/>
    </linearGradient>
    <radialGradient id="waterglow" cx="74%" cy="46%" r="48%">
      <stop offset="0" stop-color="#7fb5c8" stop-opacity="0.45"/>
      <stop offset="1" stop-color="#7fb5c8" stop-opacity="0"/>
    </radialGradient>
    <filter id="shadow" x="-20%" y="-20%" width="140%" height="140%">
      <feDropShadow dx="0" dy="20" stdDeviation="22" flood-color="#130907" flood-opacity="0.42"/>
    </filter>
  </defs>
  <rect width="1400" height="760" fill="url(#bg)"/>
  <rect width="1400" height="760" fill="url(#waterglow)"/>
  <g opacity="0.12" stroke="#f8f0e3" stroke-width="2">
    <path d="M80 110h1240M80 220h1240M80 330h1240M80 440h1240M80 550h1240M80 660h1240"/>
    <path d="M150 70v620M310 70v620M470 70v620M630 70v620M790 70v620M950 70v620M1110 70v620M1270 70v620"/>
  </g>
  <g transform="translate(120 105)" filter="url(#shadow)">
    <rect width="1160" height="540" rx="44" fill="#f8f0e3" opacity="0.93"/>
    <g stroke="#8d4f36" stroke-width="30" stroke-linecap="round" opacity="0.95">
      <path d="M90 125h970"/>
      <path d="M90 270h970"/>
      <path d="M90 415h970"/>
      <path d="M250 78v390"/>
      <path d="M510 78v390"/>
      <path d="M770 78v390"/>
    </g>
    <g stroke="#3f281c" stroke-width="11" stroke-linecap="round" opacity="0.9">
      <path d="M96 160h934"/>
      <path d="M96 305h934"/>
      <path d="M96 450h934"/>
      <path d="M290 82v382"/>
      <path d="M550 82v382"/>
      <path d="M810 82v382"/>
    </g>
    <g fill="#dcb56d" stroke="#a46135" stroke-width="5">
      <rect x="125" y="190" width="120" height="88" rx="14"/>
      <rect x="350" y="332" width="145" height="96" rx="14"/>
      <rect x="612" y="185" width="152" height="105" rx="14"/>
      <rect x="865" y="330" width="144" height="100" rx="14"/>
      <rect x="365" y="80" width="108" height="70" rx="12"/>
      <rect x="875" y="82" width="110" height="74" rx="12"/>
    </g>
    <g fill="#77b6c8" stroke="#2b1b17" stroke-opacity="0.25" stroke-width="4">
      <circle cx="175" cy="360" r="45"/>
      <circle cx="690" cy="388" r="40"/>
      <path d="M1030 118h76v340h-76z"/>
      <path d="M970 460c34 30 85 42 136 38" fill="none" stroke="#77b6c8" stroke-width="18" stroke-linecap="round"/>
    </g>
    <g fill="#2b1b17" opacity="0.7">
      <circle cx="185" cy="360" r="18"/>
      <circle cx="700" cy="388" r="16"/>
      <rect x="1043" y="150" width="50" height="250" rx="18"/>
    </g>
    <g opacity="0.22" fill="none" stroke="#2b1b17" stroke-width="4">
      <path d="M120 118c210 52 335-50 510 0s320 42 480-8"/>
      <path d="M105 418c180-52 330 42 520 0s285-42 475 2"/>
    </g>
  </g>
</svg>
