<svg xmlns="http://www.w3.org/2000/svg" viewBox="0 0 1400 760" role="img" aria-labelledby="title desc">
  <title id="title">Ancient Indian mathematics with place value and zero</title>
  <desc id="desc">A cinematic scholarly illustration of palm-leaf manuscripts, counting beads, place value columns, astronomical circles, and a zero symbol.</desc>
  <defs>
    <linearGradient id="sky" x1="0" y1="0" x2="1" y2="1">
      <stop offset="0" stop-color="#170d09"/>
      <stop offset="0.48" stop-color="#51301f"/>
      <stop offset="1" stop-color="#c3904a"/>
    </linearGradient>
    <radialGradient id="lamp" cx="78%" cy="25%" r="55%">
      <stop offset="0" stop-color="#ffd982" stop-opacity="0.8"/>
      <stop offset="0.42" stop-color="#d4b26a" stop-opacity="0.22"/>
      <stop offset="1" stop-color="#2b1b17" stop-opacity="0"/>
    </radialGradient>
    <filter id="shadow" x="-20%" y="-20%" width="140%" height="140%">
      <feDropShadow dx="0" dy="22" stdDeviation="24" flood-color="#120907" flood-opacity="0.45"/>
    </filter>
    <pattern id="grain" width="70" height="70" patternUnits="userSpaceOnUse">
      <path d="M0 20h70M20 0v70" stroke="#f8f0e3" stroke-opacity="0.045" stroke-width="1"/>
    </pattern>
  </defs>
  <rect width="1400" height="760" fill="url(#sky)"/>
  <rect width="1400" height="760" fill="url(#lamp)"/>
  <rect width="1400" height="760" fill="url(#grain)"/>
  <g opacity="0.18" fill="none" stroke="#f8f0e3" stroke-width="3">
    <circle cx="1000" cy="265" r="210"/>
    <circle cx="1000" cy="265" r="148"/>
    <path d="M790 265h420M1000 55v420M852 117l296 296M1148 117 852 413"/>
  </g>
  <g transform="translate(115 145)" filter="url(#shadow)">
    <rect x="0" y="0" width="625" height="435" rx="42" fill="#f8f0e3" opacity="0.95"/>
    <rect x="38" y="42" width="548" height="82" rx="20" fill="#ead8b0"/>
    <rect x="38" y="148" width="548" height="82" rx="20" fill="#f1dfb9"/>
    <rect x="38" y="254" width="548" height="82" rx="20" fill="#ead8b0"/>
    <path d="M178 40v296M313 40v296M448 40v296" stroke="#8d4f36" stroke-opacity="0.35" stroke-width="4"/>
    <text x="82" y="95" fill="#2b1b17" font-family="Georgia, serif" font-size="34">1000s</text>
    <text x="218" y="95" fill="#2b1b17" font-family="Georgia, serif" font-size="34">100s</text>
    <text x="364" y="95" fill="#2b1b17" font-family="Georgia, serif" font-size="34">10s</text>
    <text x="506" y="95" fill="#2b1b17" font-family="Georgia, serif" font-size="34">1s</text>
    <text x="92" y="218" fill="#24120d" font-family="Georgia, serif" font-size="96" font-weight="700">2</text>
    <text x="238" y="218" fill="#24120d" font-family="Georgia, serif" font-size="96" font-weight="700">0</text>
    <text x="374" y="218" fill="#24120d" font-family="Georgia, serif" font-size="96" font-weight="700">5</text>
    <text x="510" y="218" fill="#24120d" font-family="Georgia, serif" font-size="96" font-weight="700">6</text>
    <circle cx="313" cy="366" r="42" fill="none" stroke="#8d4f36" stroke-width="15"/>
    <path d="M95 365h135M398 365h130" stroke="#d4b26a" stroke-width="12" stroke-linecap="round"/>
  </g>
  <g transform="translate(805 415)" filter="url(#shadow)">
    <rect width="430" height="150" rx="30" fill="#f8f0e3" opacity="0.88"/>
    <path d="M58 78c86-56 150 58 236 0s120-34 160-2" fill="none" stroke="#8d4f36" stroke-width="9" stroke-linecap="round"/>
    <circle cx="120" cy="75" r="19" fill="#2b1b17"/>
    <circle cx="255" cy="80" r="19" fill="#2b1b17"/>
    <circle cx="348" cy="70" r="19" fill="#d4b26a"/>
  </g>
  <g transform="translate(865 118)" fill="#d4b26a">
    <circle cx="0" cy="0" r="12"/>
    <circle cx="80" cy="36" r="10"/>
    <circle cx="170" cy="-8" r="14"/>
    <circle cx="260" cy="46" r="9"/>
    <path d="M0 0 80 36 170-8 260 46" stroke="#d4b26a" stroke-width="3" fill="none" opacity="0.75"/>
  </g>
</svg>
