<svg xmlns="http://www.w3.org/2000/svg" viewBox="0 0 1400 760" role="img" aria-labelledby="title desc">
  <title id="title">Archaeological evidence layers and excavation</title>
  <desc id="desc">A warm archaeological trench scene with stratigraphy, pottery, beads, brickwork, measurement strings, and excavation tools.</desc>
  <defs>
    <linearGradient id="bg" x1="0" y1="0" x2="1" y2="1">
      <stop offset="0" stop-color="#190e09"/>
      <stop offset="0.52" stop-color="#6e3f25"/>
      <stop offset="1" stop-color="#c99051"/>
    </linearGradient>
    <radialGradient id="sun" cx="26%" cy="18%" r="60%">
      <stop offset="0" stop-color="#f8f0e3" stop-opacity="0.58"/>
      <stop offset="1" stop-color="#f8f0e3" stop-opacity="0"/>
    </radialGradient>
    <filter id="shadow" x="-20%" y="-20%" width="140%" height="140%">
      <feDropShadow dx="0" dy="20" stdDeviation="24" flood-color="#110805" flood-opacity="0.45"/>
    </filter>
  </defs>
  <rect width="1400" height="760" fill="url(#bg)"/>
  <rect width="1400" height="760" fill="url(#sun)"/>
  <g transform="translate(128 112)" filter="url(#shadow)">
    <rect width="1144" height="520" rx="42" fill="#f8f0e3" opacity="0.92"/>
    <g transform="translate(70 82)">
      <path d="M0 70h1005v95H0z" fill="#ead8b0"/>
      <path d="M0 165h1005v102H0z" fill="#c98f54"/>
      <path d="M0 267h1005v102H0z" fill="#8d4f36"/>
      <path d="M0 369h1005v68H0z" fill="#4d2f20"/>
      <g fill="none" stroke="#2b1b17" stroke-width="5" opacity="0.28">
        <path d="M20 115c100-34 190 34 310 0s235-20 365 10 205-30 290-4"/>
        <path d="M20 222c130 32 220-28 340 4s210 30 320-8 210 22 300 2"/>
        <path d="M20 320c150-38 250 35 370 0s240-34 350 8 160-20 230-8"/>
      </g>
      <g stroke="#f8f0e3" stroke-width="3" opacity="0.5">
        <path d="M0 70h1005M0 165h1005M0 267h1005M0 369h1005"/>
      </g>
      <g fill="#2b1b17">
        <circle cx="165" cy="218" r="18"/>
        <circle cx="745" cy="318" r="15"/>
        <rect x="470" y="200" width="112" height="26" rx="6"/>
      </g>
      <g fill="#d4b26a" stroke="#2b1b17" stroke-opacity="0.18" stroke-width="3">
        <circle cx="800" cy="110" r="22"/>
        <circle cx="850" cy="118" r="17"/>
        <circle cx="895" cy="105" r="20"/>
        <rect x="110" y="326" width="175" height="38" rx="8"/>
      </g>
      <path d="M340 288c62-42 130-42 194 0-34 52-106 54-194 0z" fill="#2b1b17" opacity="0.82"/>
      <path d="M900 54l70 72M940 54l-72 72" stroke="#2b1b17" stroke-width="10" stroke-linecap="round" opacity="0.45"/>
      <path d="M86 33h820" stroke="#2b1b17" stroke-width="3" stroke-dasharray="12 14" opacity="0.45"/>
      <circle cx="86" cy="33" r="8" fill="#8d4f36"/>
      <circle cx="906" cy="33" r="8" fill="#8d4f36"/>
    </g>
  </g>
</svg>
