<svg xmlns="http://www.w3.org/2000/svg" viewBox="0 0 1400 760" role="img" aria-labelledby="title desc">
  <title id="title">Sanskrit technical texts and manuscript study</title>
  <desc id="desc">A layered manuscript desk scene with palm leaves, stylus, translation notes, lamps, and annotated technical terms.</desc>
  <defs>
    <linearGradient id="bg" x1="0" y1="0" x2="1" y2="1">
      <stop offset="0" stop-color="#150b08"/>
      <stop offset="0.55" stop-color="#65351f"/>
      <stop offset="1" stop-color="#c69b5c"/>
    </linearGradient>
    <radialGradient id="lamp" cx="72%" cy="18%" r="52%">
      <stop offset="0" stop-color="#ffe4a4" stop-opacity="0.76"/>
      <stop offset="0.42" stop-color="#d4b26a" stop-opacity="0.24"/>
      <stop offset="1" stop-color="#d4b26a" stop-opacity="0"/>
    </radialGradient>
    <filter id="shadow" x="-20%" y="-20%" width="140%" height="140%">
      <feDropShadow dx="0" dy="22" stdDeviation="24" flood-color="#100705" flood-opacity="0.45"/>
    </filter>
  </defs>
  <rect width="1400" height="760" fill="url(#bg)"/>
  <rect width="1400" height="760" fill="url(#lamp)"/>
  <g opacity="0.12" stroke="#f8f0e3" stroke-width="2">
    <path d="M80 130h1240M80 220h1240M80 310h1240M80 400h1240M80 490h1240M80 580h1240"/>
  </g>
  <g transform="translate(155 145)" filter="url(#shadow)">
    <rect width="1090" height="465" rx="44" fill="#f8f0e3" opacity="0.92"/>
    <g transform="translate(82 95)">
      <rect x="0" y="0" width="710" height="66" rx="33" fill="#e9cf94" stroke="#8d4f36" stroke-width="4"/>
      <rect x="0" y="92" width="710" height="66" rx="33" fill="#f0ddae" stroke="#8d4f36" stroke-width="4"/>
      <rect x="0" y="184" width="710" height="66" rx="33" fill="#e9cf94" stroke="#8d4f36" stroke-width="4"/>
      <g fill="#8d4f36">
        <circle cx="40" cy="33" r="9"/><circle cx="670" cy="33" r="9"/>
        <circle cx="40" cy="125" r="9"/><circle cx="670" cy="125" r="9"/>
        <circle cx="40" cy="217" r="9"/><circle cx="670" cy="217" r="9"/>
      </g>
      <g stroke="#2b1b17" stroke-linecap="round" opacity="0.56">
        <path d="M95 35h440" stroke-width="12"/>
        <path d="M95 52h330" stroke-width="7"/>
        <path d="M95 127h500" stroke-width="12"/>
        <path d="M95 144h365" stroke-width="7"/>
        <path d="M95 219h395" stroke-width="12"/>
        <path d="M95 236h480" stroke-width="7"/>
      </g>
    </g>
    <g transform="translate(830 92)">
      <rect width="175" height="285" rx="28" fill="#2b1b17"/>
      <rect x="25" y="30" width="125" height="40" rx="10" fill="#d4b26a"/>
      <path d="M38 115h98M38 158h118M38 201h80" stroke="#f8f0e3" stroke-width="10" stroke-linecap="round" opacity="0.78"/>
      <circle cx="48" cy="245" r="13" fill="#d4b26a"/>
      <circle cx="88" cy="245" r="13" fill="#8d4f36"/>
      <circle cx="128" cy="245" r="13" fill="#d4b26a"/>
    </g>
    <path d="M675 390c85-76 170-76 250 0" fill="none" stroke="#8d4f36" stroke-width="10" stroke-linecap="round" opacity="0.55"/>
    <path d="M712 405h245" stroke="#d4b26a" stroke-width="12" stroke-linecap="round" opacity="0.65"/>
  </g>
</svg>
